<svg width="18" height="12" xmlns="http://www.w3.org/2000/svg"><path d="M1 .429A.571.571 0 001 1.57V.43zm3.488 1.44l.554-.138-.554.137zm2.115 8.548l-.554.138.554-.138zm8.802.014l.553.144-.553-.144zm1.222-4.694l-.553-.144.553.144zm-7.99-2.002a.571.571 0 000 1.143V3.735zM1 1.57h2.378V.43H1v1.14zm2.933.435l2.116 8.549 1.109-.275L5.042 1.73l-1.11.275zm3.78 9.851h6.586v-1.143H7.713v1.143zm8.244-1.282L17.18 5.88l-1.106-.288-1.223 4.694 1.106.288zm-.436-6.84H8.636v1.143h6.885V3.735zm1.66 2.146a1.714 1.714 0 00-1.66-2.146v1.143a.57.57 0 01.553.715l1.106.288zm-2.883 5.976c.78 0 1.463-.527 1.66-1.282l-1.107-.288a.572.572 0 01-.553.427v1.143zm-8.25-1.302c.19.765.877 1.302 1.665 1.302v-1.143a.571.571 0 01-.555-.434l-1.11.275zM3.379 1.57c.263 0 .492.18.555.435l1.11-.275A1.714 1.714 0 003.377.429V1.57z"/><path d="M1 .429A.571.571 0 001 1.57V.43zm3.488 1.44l.554-.138-.554.137zm2.115 8.548l-.554.138.554-.138zm8.802.014l.553.144-.553-.144zm1.222-4.694l-.553-.144.553.144zm-7.99-2.002a.571.571 0 000 1.143V3.735zM1 1.57h2.378V.43H1v1.14zm2.933.435l2.116 8.549 1.109-.275L5.042 1.73l-1.11.275zm3.78 9.851h6.586v-1.143H7.713v1.143zm8.244-1.282L17.18 5.88l-1.106-.288-1.223 4.694 1.106.288zm-.436-6.84H8.636v1.143h6.885V3.735zm1.66 2.146a1.714 1.714 0 00-1.66-2.146v1.143a.57.57 0 01.553.715l1.106.288zm-2.883 5.976c.78 0 1.463-.527 1.66-1.282l-1.107-.288a.572.572 0 01-.553.427v1.143zm-8.25-1.302c.19.765.877 1.302 1.665 1.302v-1.143a.571.571 0 01-.555-.434l-1.11.275zM3.379 1.57c.263 0 .492.18.555.435l1.11-.275A1.714 1.714 0 003.377.429V1.57z" fill-opacity=".2"/></svg>