<svg width="21" height="21" viewBox="0 0 21 21" fill="none" xmlns="http://www.w3.org/2000/svg">
<circle cx="10.5" cy="10.5" r="10" fill="white"/>
<circle cx="10.5" cy="10.5" r="10" stroke="#1D1700"/>
<circle cx="10.5" cy="10.5" r="10" stroke="black" stroke-opacity="0.2"/>
<path d="M6.644 15C6.644 14.3467 6.7 13.782 6.812 13.306C6.924 12.83 7.092 12.4147 7.316 12.06C7.54 11.7053 7.81533 11.3973 8.142 11.136C8.478 10.8747 8.86533 10.6367 9.304 10.422C9.612 10.2727 9.934 10.128 10.27 9.988C10.606 9.83867 10.9093 9.67533 11.18 9.498C11.4507 9.31133 11.6747 9.092 11.852 8.84C12.0293 8.57867 12.118 8.252 12.118 7.86C12.118 7.61733 12.076 7.38867 11.992 7.174C11.9173 6.95933 11.8007 6.77267 11.642 6.614C11.4833 6.446 11.2827 6.31533 11.04 6.222C10.8067 6.12867 10.5267 6.082 10.2 6.082C9.87333 6.082 9.57 6.12867 9.29 6.222C9.01 6.306 8.758 6.418 8.534 6.558C8.31 6.68867 8.10933 6.83333 7.932 6.992C7.764 7.14133 7.624 7.286 7.512 7.426L6.714 6.628C6.78867 6.53467 6.91933 6.39467 7.106 6.208C7.302 6.02133 7.54933 5.83467 7.848 5.648C8.156 5.452 8.51533 5.284 8.926 5.144C9.33667 5.004 9.80333 4.934 10.326 4.934C10.8487 4.934 11.306 5.01333 11.698 5.172C12.09 5.32133 12.4167 5.52667 12.678 5.788C12.9487 6.04933 13.1493 6.35733 13.28 6.712C13.42 7.06667 13.49 7.44 13.49 7.832C13.49 8.29867 13.406 8.7 13.238 9.036C13.07 9.36267 12.8507 9.64733 12.58 9.89C12.3187 10.1327 12.02 10.3473 11.684 10.534C11.348 10.7113 11.0073 10.8793 10.662 11.038C10.186 11.262 9.78933 11.4767 9.472 11.682C9.164 11.8873 8.912 12.102 8.716 12.326C8.52933 12.5407 8.39867 12.774 8.324 13.026C8.24933 13.278 8.212 13.5627 8.212 13.88H13.504V15H6.644Z" fill="#1D1700"/>
<path d="M6.644 15C6.644 14.3467 6.7 13.782 6.812 13.306C6.924 12.83 7.092 12.4147 7.316 12.06C7.54 11.7053 7.81533 11.3973 8.142 11.136C8.478 10.8747 8.86533 10.6367 9.304 10.422C9.612 10.2727 9.934 10.128 10.27 9.988C10.606 9.83867 10.9093 9.67533 11.18 9.498C11.4507 9.31133 11.6747 9.092 11.852 8.84C12.0293 8.57867 12.118 8.252 12.118 7.86C12.118 7.61733 12.076 7.38867 11.992 7.174C11.9173 6.95933 11.8007 6.77267 11.642 6.614C11.4833 6.446 11.2827 6.31533 11.04 6.222C10.8067 6.12867 10.5267 6.082 10.2 6.082C9.87333 6.082 9.57 6.12867 9.29 6.222C9.01 6.306 8.758 6.418 8.534 6.558C8.31 6.68867 8.10933 6.83333 7.932 6.992C7.764 7.14133 7.624 7.286 7.512 7.426L6.714 6.628C6.78867 6.53467 6.91933 6.39467 7.106 6.208C7.302 6.02133 7.54933 5.83467 7.848 5.648C8.156 5.452 8.51533 5.284 8.926 5.144C9.33667 5.004 9.80333 4.934 10.326 4.934C10.8487 4.934 11.306 5.01333 11.698 5.172C12.09 5.32133 12.4167 5.52667 12.678 5.788C12.9487 6.04933 13.1493 6.35733 13.28 6.712C13.42 7.06667 13.49 7.44 13.49 7.832C13.49 8.29867 13.406 8.7 13.238 9.036C13.07 9.36267 12.8507 9.64733 12.58 9.89C12.3187 10.1327 12.02 10.3473 11.684 10.534C11.348 10.7113 11.0073 10.8793 10.662 11.038C10.186 11.262 9.78933 11.4767 9.472 11.682C9.164 11.8873 8.912 12.102 8.716 12.326C8.52933 12.5407 8.39867 12.774 8.324 13.026C8.24933 13.278 8.212 13.5627 8.212 13.88H13.504V15H6.644Z" fill="black" fill-opacity="0.2"/>
</svg>
