<svg width="40" height="40" viewBox="0 0 40 40" fill="none" xmlns="http://www.w3.org/2000/svg">
<circle cx="19.9836" cy="19.9836" r="19.9836" fill="#0278E6"/>
<path fill-rule="evenodd" clip-rule="evenodd" d="M15.9319 21.4281C14.4439 19.9805 13.5183 17.5958 13.261 14.547L13.1694 13.4612H11.3659C10.3739 13.4612 9.53581 13.4876 9.50344 13.5201C9.38315 13.6404 9.66005 16.4128 9.90272 17.5168C11.1564 23.2215 14.83 26.5249 20.2771 26.8455L21.626 26.9249V24.5301V22.1354L22.1195 22.2199C22.8517 22.345 24.1859 22.992 24.8786 23.5578C25.5318 24.0911 26.643 25.6755 26.891 26.4271L27.0422 26.8853H28.9568H30.8712L30.7858 26.4575C30.6634 25.8448 30.0251 24.5289 29.4178 23.6374C28.7436 22.648 27.5794 21.504 26.4734 20.7444L25.596 20.1416L26.4076 19.4932C27.9258 18.2803 29.2234 16.4782 29.7765 14.8144C29.996 14.1543 30.1286 13.8125 30.0116 13.6399C29.8753 13.4388 29.4004 13.4674 28.3299 13.4903L26.6111 13.527L26.2486 14.3867C25.7704 15.521 24.9467 16.7167 24.1661 17.4101C23.5702 17.9393 22.1509 18.7251 21.7905 18.7254C21.6645 18.7255 21.626 18.1114 21.626 16.0934V13.4612H19.8494H18.0727V18.0763V22.6915L17.7766 22.6032C17.2656 22.4507 16.4471 21.9294 15.9319 21.4281Z" fill="#FAF8F7"/>
</svg>
