<svg width="40" height="40" fill="none" xmlns="http://www.w3.org/2000/svg"><circle cx="19.984" cy="19.984" r="19.984" fill="#0278E6"/><path fill-rule="evenodd" clip-rule="evenodd" d="M15.932 21.428c-1.488-1.448-2.414-3.832-2.671-6.881l-.092-1.086h-1.803c-.992 0-1.83.027-1.863.06-.12.12.157 2.892.4 3.996 1.253 5.704 4.927 9.008 10.374 9.329l1.349.079v-4.79l.493.085c.733.125 2.067.772 2.76 1.338.653.533 1.764 2.117 2.012 2.87l.151.457h3.829l-.085-.428c-.123-.612-.76-1.928-1.368-2.82-.674-.989-1.839-2.133-2.945-2.893l-.877-.602.812-.649c1.518-1.213 2.815-3.015 3.368-4.679.22-.66.353-1.002.236-1.174-.137-.201-.612-.173-1.682-.15l-1.719.037-.362.86c-.479 1.134-1.302 2.33-2.083 3.023-.596.53-2.015 1.315-2.375 1.315-.127 0-.165-.614-.165-2.632v-2.632h-3.553v9.231l-.296-.089c-.511-.152-1.33-.674-1.845-1.175z" fill="#FAF8F7"/></svg>