<svg width="21" height="21" fill="none" xmlns="http://www.w3.org/2000/svg"><circle cx="10.5" cy="10.5" r="10" fill="#fff"/><circle cx="10.5" cy="10.5" r="10" stroke="#1D1700"/><circle cx="10.5" cy="10.5" r="10" stroke="#000" stroke-opacity=".2"/><path d="M6.644 15c0-.653.056-1.218.168-1.694.112-.476.28-.891.504-1.246.224-.355.5-.663.826-.924.336-.261.723-.5 1.162-.714.308-.15.63-.294.966-.434.336-.15.64-.313.91-.49.27-.187.495-.406.672-.658.177-.261.266-.588.266-.98 0-.243-.042-.471-.126-.686a1.46 1.46 0 00-.35-.56 1.606 1.606 0 00-.602-.392 2.26 2.26 0 00-.84-.14c-.327 0-.63.047-.91.14-.28.084-.532.196-.756.336-.224.13-.425.275-.602.434-.168.15-.308.294-.42.434l-.798-.798c.075-.093.205-.233.392-.42.196-.187.443-.373.742-.56a5.018 5.018 0 011.078-.504c.41-.14.877-.21 1.4-.21.523 0 .98.08 1.372.238.392.15.719.355.98.616.27.261.471.57.602.924.14.355.21.728.21 1.12 0 .467-.084.868-.252 1.204a2.946 2.946 0 01-.658.854c-.261.243-.56.457-.896.644-.336.177-.677.345-1.022.504a10.29 10.29 0 00-1.19.644 3.79 3.79 0 00-.756.644 1.871 1.871 0 00-.392.7 3.005 3.005 0 00-.112.854h5.292V15h-6.86z" fill="#1D1700"/><path d="M6.644 15c0-.653.056-1.218.168-1.694.112-.476.28-.891.504-1.246.224-.355.5-.663.826-.924.336-.261.723-.5 1.162-.714.308-.15.63-.294.966-.434.336-.15.64-.313.91-.49.27-.187.495-.406.672-.658.177-.261.266-.588.266-.98 0-.243-.042-.471-.126-.686a1.46 1.46 0 00-.35-.56 1.606 1.606 0 00-.602-.392 2.26 2.26 0 00-.84-.14c-.327 0-.63.047-.91.14-.28.084-.532.196-.756.336-.224.13-.425.275-.602.434-.168.15-.308.294-.42.434l-.798-.798c.075-.093.205-.233.392-.42.196-.187.443-.373.742-.56a5.018 5.018 0 011.078-.504c.41-.14.877-.21 1.4-.21.523 0 .98.08 1.372.238.392.15.719.355.98.616.27.261.471.57.602.924.14.355.21.728.21 1.12 0 .467-.084.868-.252 1.204a2.946 2.946 0 01-.658.854c-.261.243-.56.457-.896.644-.336.177-.677.345-1.022.504a10.29 10.29 0 00-1.19.644 3.79 3.79 0 00-.756.644 1.871 1.871 0 00-.392.7 3.005 3.005 0 00-.112.854h5.292V15h-6.86z" fill="#000" fill-opacity=".2"/></svg>