<?xml version="1.0" encoding="utf-8"?><svg viewBox="0 0 20 18" xmlns="http://www.w3.org/2000/svg" xmlns:xlink="http://www.w3.org/1999/xlink"><style>:root>svg{display:none}:root>svg:target{display:block}</style><svg viewBox="0 0 18 12" id="basket" xmlns="http://www.w3.org/2000/svg"><path d="M1 .429A.571.571 0 001 1.57V.43zm3.488 1.44l.554-.138-.554.137zm2.115 8.548l-.554.138.554-.138zm8.802.014l.553.144-.553-.144zm1.222-4.694l-.553-.144.553.144zm-7.99-2.002a.571.571 0 000 1.143V3.735zM1 1.57h2.378V.43H1V1.57zm2.933.435l2.116 8.549 1.109-.275-2.116-8.549-1.11.275zm3.78 9.851h6.586v-1.143H7.713v1.143zm8.244-1.282l1.223-4.694-1.106-.288-1.223 4.694 1.106.288zm-.436-6.84H8.636v1.143h6.885V3.735zm1.66 2.146a1.714 1.714 0 00-1.66-2.146v1.143c.374 0 .648.353.553.715l1.106.288zm-2.883 5.976c.78 0 1.463-.527 1.66-1.282l-1.107-.288a.572.572 0 01-.553.427v1.143zm-8.25-1.302c.19.765.877 1.302 1.665 1.302v-1.143a.571.571 0 01-.555-.434l-1.11.275zM3.379 1.57c.263 0 .492.18.555.435l1.11-.275A1.714 1.714 0 003.377.429V1.57z"/><path d="M1 .429A.571.571 0 001 1.57V.43zm3.488 1.44l.554-.138-.554.137zm2.115 8.548l-.554.138.554-.138zm8.802.014l.553.144-.553-.144zm1.222-4.694l-.553-.144.553.144zm-7.99-2.002a.571.571 0 000 1.143V3.735zM1 1.57h2.378V.43H1V1.57zm2.933.435l2.116 8.549 1.109-.275-2.116-8.549-1.11.275zm3.78 9.851h6.586v-1.143H7.713v1.143zm8.244-1.282l1.223-4.694-1.106-.288-1.223 4.694 1.106.288zm-.436-6.84H8.636v1.143h6.885V3.735zm1.66 2.146a1.714 1.714 0 00-1.66-2.146v1.143c.374 0 .648.353.553.715l1.106.288zm-2.883 5.976c.78 0 1.463-.527 1.66-1.282l-1.107-.288a.572.572 0 01-.553.427v1.143zm-8.25-1.302c.19.765.877 1.302 1.665 1.302v-1.143a.571.571 0 01-.555-.434l-1.11.275zM3.379 1.57c.263 0 .492.18.555.435l1.11-.275A1.714 1.714 0 003.377.429V1.57z" fill-opacity=".2"/></svg><svg fill="none" viewBox="0 0 14 13" id="dash" xmlns="http://www.w3.org/2000/svg"><path d="M14 0L4 13H0L10.5 0H14z" fill="#0278E6"/></svg><svg fill="none" viewBox="0 0 20 18" id="heart" xmlns="http://www.w3.org/2000/svg"><path d="M5.533.784C3.03.784 1 2.734 1 5.138c0 1.941.793 6.549 8.602 11.206a.914.914 0 00.929 0c7.809-4.657 8.602-9.265 8.602-11.206 0-2.405-2.03-4.354-4.533-4.354-2.503 0-4.533 2.639-4.533 2.639S8.037.784 5.533.784z" stroke="#1D1700" stroke-width="1.36" stroke-linecap="round" stroke-linejoin="round"/><path d="M5.533.784C3.03.784 1 2.734 1 5.138c0 1.941.793 6.549 8.602 11.206a.914.914 0 00.929 0c7.809-4.657 8.602-9.265 8.602-11.206 0-2.405-2.03-4.354-4.533-4.354-2.503 0-4.533 2.639-4.533 2.639S8.037.784 5.533.784z"/></svg><svg fill="none" viewBox="0 0 7 12" id="prev" xmlns="http://www.w3.org/2000/svg"><path d="M6.566 6.566a.8.8 0 000-1.132L1.475.344a.8.8 0 00-1.132 1.13L4.87 6 .343 10.525a.8.8 0 001.132 1.132l5.09-5.091zM5 6.8h1V5.2H5v1.6z" fill="#1D1700"/><path d="M6.566 6.566a.8.8 0 000-1.132L1.475.344a.8.8 0 00-1.132 1.13L4.87 6 .343 10.525a.8.8 0 001.132 1.132l5.09-5.091zM5 6.8h1V5.2H5v1.6z" fill="#000" fill-opacity=".2"/></svg><svg fill="none" viewBox="0 0 16 16" id="search" xmlns="http://www.w3.org/2000/svg"><circle cx="6.449" cy="6.449" r="5.763" stroke="#1D1700" stroke-width="1.373"/><circle cx="6.449" cy="6.449" r="5.763"/><rect x="10.518" y="11.045" width=".747" height="6.32" rx=".373" transform="rotate(-45 10.518 11.045)" fill="#1D1700"/><rect x="10.518" y="11.045" width=".747" height="6.32" rx=".373" transform="rotate(-45 10.518 11.045)"/><rect x="10.518" y="11.045" width=".747" height="6.32" rx=".373" transform="rotate(-45 10.518 11.045)" stroke="#1D1700" stroke-width=".686"/><rect x="10.518" y="11.045" width=".747" height="6.32" rx=".373" transform="rotate(-45 10.518 11.045)"/></svg><svg fill="none" viewBox="0 0 17 16" id="skils" xmlns="http://www.w3.org/2000/svg"><rect y="9.455" width="1.455" height="6.545" rx=".727" fill="#1D1700"/><rect y="9.455" width="1.455" height="6.545" rx=".727" fill="#000" fill-opacity=".2"/><rect x="15.273" y="5.818" width="1.455" height="10.182" rx=".727" fill="#1D1700"/><rect x="15.273" y="5.818" width="1.455" height="10.182" rx=".727" fill="#000" fill-opacity=".2"/><rect x="10.182" y="2.182" width="1.455" height="13.818" rx=".727" fill="#1D1700"/><rect x="10.182" y="2.182" width="1.455" height="13.818" rx=".727" fill="#000" fill-opacity=".2"/><rect x="5.091" width="1.455" height="16" rx=".727" fill="#1D1700"/><rect x="5.091" width="1.455" height="16" rx=".727" fill="#000" fill-opacity=".2"/></svg><svg fill="none" viewBox="0 0 19 17" id="user" xmlns="http://www.w3.org/2000/svg"><path d="M.61 15.443a.68.68 0 10.78 1.114l-.78-1.114zm16.327 1.114a.68.68 0 10.78-1.114l-.78 1.114zM1 16a105.546 105.546 0 01.39.558h-.001l.004-.003a2.007 2.007 0 01.12-.078c.09-.057.226-.14.406-.24.36-.203.895-.475 1.578-.748a15.316 15.316 0 015.666-1.095v-1.36c-2.554 0-4.682.596-6.17 1.192-.746.298-1.334.597-1.739.824a10.29 10.29 0 00-.628.382l-.01.007-.004.002-.001.001S.61 15.444 1 16zm8.163-1.606c2.344 0 4.298.547 5.666 1.095.683.273 1.218.545 1.578.747a8.888 8.888 0 01.53.322l.39-.558.39-.557h-.001l-.002-.002s-.002 0-.003-.002l-.01-.007-.035-.023a10.272 10.272 0 00-.594-.359 14.925 14.925 0 00-1.738-.824 16.679 16.679 0 00-6.17-1.192v1.36z" fill="#1D1700"/><path d="M.61 15.443a.68.68 0 10.78 1.114l-.78-1.114zm16.327 1.114a.68.68 0 10.78-1.114l-.78 1.114zM1 16a105.546 105.546 0 01.39.558h-.001l.004-.003a2.007 2.007 0 01.12-.078c.09-.057.226-.14.406-.24.36-.203.895-.475 1.578-.748a15.316 15.316 0 015.666-1.095v-1.36c-2.554 0-4.682.596-6.17 1.192-.746.298-1.334.597-1.739.824a10.29 10.29 0 00-.628.382l-.01.007-.004.002-.001.001S.61 15.444 1 16zm8.163-1.606c2.344 0 4.298.547 5.666 1.095.683.273 1.218.545 1.578.747a8.888 8.888 0 01.53.322l.39-.558.39-.557h-.001l-.002-.002s-.002 0-.003-.002l-.01-.007-.035-.023a10.272 10.272 0 00-.594-.359 14.925 14.925 0 00-1.738-.824 16.679 16.679 0 00-6.17-1.192v1.36z" fill="#000" fill-opacity=".2"/><circle cx="9.164" cy="5.878" r="5.198" stroke="#1D1700" stroke-width="1.36"/><circle cx="9.164" cy="5.878" r="5.198"/></svg></svg>